<?xml version="1.0" encoding="UTF-8" standalone="no"?>
<!-- Created with Inkscape (http://www.inkscape.org/) -->

<svg
   xmlns:dc="http://purl.org/dc/elements/1.1/"
   xmlns:cc="http://creativecommons.org/ns#"
   xmlns:rdf="http://www.w3.org/1999/02/22-rdf-syntax-ns#"
   xmlns:svg="http://www.w3.org/2000/svg"
   xmlns="http://www.w3.org/2000/svg"
   xmlns:sodipodi="http://sodipodi.sourceforge.net/DTD/sodipodi-0.dtd"
   xmlns:inkscape="http://www.inkscape.org/namespaces/inkscape"
   width="48"
   height="48"
   viewBox="0 0 48 48"
   id="svg2"
   version="1.1"
   inkscape:version="0.91 r13725"
   inkscape:export-filename="/home/alex/Pictures/Spider.png"
   inkscape:export-xdpi="90"
   inkscape:export-ydpi="90"
   sodipodi:docname="Bug.svg">
  <defs
     id="defs4" />
  <sodipodi:namedview
     id="base"
     pagecolor="#ffffff"
     bordercolor="#666666"
     borderopacity="1.0"
     inkscape:pageopacity="0.0"
     inkscape:pageshadow="2"
     inkscape:zoom="22.4"
     inkscape:cx="20.330959"
     inkscape:cy="25.031836"
     inkscape:document-units="px"
     inkscape:current-layer="layer1"
     showgrid="true"
     units="px"
     showguides="true"
     inkscape:window-width="2560"
     inkscape:window-height="1700"
     inkscape:window-x="0"
     inkscape:window-y="0"
     inkscape:window-maximized="1">
    <inkscape:grid
       type="xygrid"
       id="grid3336"
       empcolor="#753f7e"
       empopacity="0.24705882"
       empspacing="10"
       color="#3f3fff"
       opacity="0.25098039" />
    <sodipodi:guide
       position="0,0"
       orientation="0,48"
       id="guide3338" />
    <sodipodi:guide
       position="48,0"
       orientation="-48,0"
       id="guide3340" />
    <sodipodi:guide
       position="48,48"
       orientation="0,-48"
       id="guide3342" />
    <sodipodi:guide
       position="24,48"
       orientation="1,0"
       id="guide3344"
       inkscape:label=""
       inkscape:color="rgb(0,0,255)" />
  </sodipodi:namedview>
  <metadata
     id="metadata7">
    <rdf:RDF>
      <cc:Work
         rdf:about="">
        <dc:format>image/svg+xml</dc:format>
        <dc:type
           rdf:resource="http://purl.org/dc/dcmitype/StillImage" />
        <dc:title></dc:title>
      </cc:Work>
    </rdf:RDF>
  </metadata>
  <g
     inkscape:label="Layer 1"
     inkscape:groupmode="layer"
     id="layer1"
     transform="translate(0,-1004.3622)">
    <g
       id="g4256"
       style="stroke:#7f4a00;stroke-opacity:1">
      <g
         style="stroke:#7f4a00;stroke-opacity:1"
         id="g3417">
        <g
           style="stroke:#7f4a00;stroke-opacity:1"
           id="g3371"
           transform="translate(-0.18427063,0)">
          <path
             inkscape:connector-curvature="0"
             id="path3354"
             d="m 24.040895,1012.2038 -2.457398,0 -1.2287,1.4661 -0.614349,1.4659 0.614349,1.4659 1.843049,0.7329 0,0.7331 -1.228699,1.4658 -1.843049,0.7331 -2.457398,1.466 -1.228699,2.1988 -0.614349,2.9318 0.614349,2.9319 0,2.9319 -0.614349,4.3978 0.614349,2.1988 2.457398,2.199 3.071748,0.733 2.457398,-0.733 0.61435,3.6648 z"
             style="fill:none;fill-rule:evenodd;stroke:#7f4a00;stroke-width:0.67104232px;stroke-linecap:butt;stroke-linejoin:miter;stroke-opacity:1" />
          <path
             inkscape:connector-curvature="0"
             id="path3354-3"
             d="m 24.327645,1012.2169 2.457399,0 1.2287,1.4661 0.614349,1.4659 -0.614349,1.466 -1.84305,0.7328 0,0.7331 1.2287,1.4657 1.843048,0.7332 2.457399,1.4659 1.228698,2.1989 0.61435,2.9318 -0.61435,2.9318 0,2.932 0.61435,4.3978 -0.61435,2.1989 -2.457398,2.1989 -3.071747,0.733 -2.457398,-0.733 -0.614351,3.6647 z"
             style="fill:none;fill-rule:evenodd;stroke:#7f4a00;stroke-width:0.67104232px;stroke-linecap:butt;stroke-linejoin:miter;stroke-opacity:1" />
        </g>
        <g
           style="stroke:#7f4a00;stroke-opacity:1"
           id="g3407"
           transform="translate(0.09566072,0)">
          <path
             inkscape:connector-curvature="0"
             id="path3375"
             d="m 31,1021.3622 6,-2 4,-4 0,-6 1,0 0,7 0,-1 -5,5 -5,2 z"
             style="fill:none;fill-rule:evenodd;stroke:#7f4a00;stroke-width:1px;stroke-linecap:butt;stroke-linejoin:miter;stroke-opacity:1" />
          <path
             inkscape:connector-curvature="0"
             id="path3377"
             d="m 33,1027.3622 6,1 6,-2 1,-7 1,1 -1,7 -7,2 -6,-1 z"
             style="fill:none;fill-rule:evenodd;stroke:#7f4a00;stroke-width:1px;stroke-linecap:butt;stroke-linejoin:miter;stroke-opacity:1" />
          <path
             inkscape:connector-curvature="0"
             id="path3379"
             d="m 33,1032.3622 7,0 6,3 2,7 -1,0 -2,-6 -5,-3 -7,0 z"
             style="fill:none;fill-rule:evenodd;stroke:#7f4a00;stroke-width:1px;stroke-linecap:butt;stroke-linejoin:miter;stroke-opacity:1" />
          <path
             inkscape:connector-curvature="0"
             id="path3381"
             d="m 33,1037.3622 7,2 3,6 0,6 -1,0 0,-6 -3,-5 -6,-2 0,-1 z"
             style="fill:none;fill-rule:evenodd;stroke:#7f4a00;stroke-width:1px;stroke-linecap:butt;stroke-linejoin:miter;stroke-opacity:1" />
          <path
             inkscape:connector-curvature="0"
             id="path3375-6"
             d="m 16.808679,1021.4693 -6,-2 -4.0000004,-4 0,-6 -1,0 0,7 0,-1 5.0000004,5 5,2 z"
             style="fill:none;fill-rule:evenodd;stroke:#7f4a00;stroke-width:1px;stroke-linecap:butt;stroke-linejoin:miter;stroke-opacity:1" />
          <path
             inkscape:connector-curvature="0"
             id="path3377-7"
             d="m 14.808679,1027.4693 -6.0000004,1 -6,-2 -1,-7 -1.00000003,1 1.00000003,7 7,2 6.0000004,-1 z"
             style="fill:none;fill-rule:evenodd;stroke:#7f4a00;stroke-width:1px;stroke-linecap:butt;stroke-linejoin:miter;stroke-opacity:1" />
          <path
             inkscape:connector-curvature="0"
             id="path3379-5"
             d="m 14.808679,1032.4693 -7.0000004,0 -6,3 -2.00000003,7 1,0 2.00000003,-6 5,-3 7.0000004,0 z"
             style="fill:none;fill-rule:evenodd;stroke:#7f4a00;stroke-width:1px;stroke-linecap:butt;stroke-linejoin:miter;stroke-opacity:1" />
          <path
             inkscape:connector-curvature="0"
             id="path3381-3"
             d="m 14.808679,1037.4693 -7.0000004,2 -3,6 0,6 1,0 0,-6 3,-5 6.0000004,-2 0,-1 z"
             style="fill:none;fill-rule:evenodd;stroke:#7f4a00;stroke-width:1px;stroke-linecap:butt;stroke-linejoin:miter;stroke-opacity:1" />
        </g>
      </g>
      <path
         inkscape:connector-curvature="0"
         id="path3431"
         d="m 21.044643,1012.0051 -1,-3 2,-4 -1,4 1,3 -1,0 z"
         style="fill:none;fill-rule:evenodd;stroke:#7f4a00;stroke-width:1px;stroke-linecap:butt;stroke-linejoin:miter;stroke-opacity:1" />
      <path
         inkscape:connector-curvature="0"
         id="path3431-5"
         d="m 26.850306,1011.9962 1,-3 -2,-4 1,4 -1,3 1,0 z"
         style="fill:none;fill-rule:evenodd;stroke:#7f4a00;stroke-width:1px;stroke-linecap:butt;stroke-linejoin:miter;stroke-opacity:1" />
    </g>
    <path
       style="fill:#7f4a00;stroke:none;stroke-width:1px;stroke-linecap:butt;stroke-linejoin:miter;stroke-opacity:1;fill-opacity:1"
       d="M 19.339888,37.186653 C 18.56645,36.998437 17.9065,36.827654 17.873332,36.807135 c -0.03317,-0.02052 -0.565535,-0.489536 -1.183036,-1.042261 l -1.122729,-1.004956 -0.07656,-0.273109 c -0.06025,-0.214922 -0.07689,-0.461796 -0.07813,-1.15873 l -0.0016,-0.885621 -0.178572,0.03017 c -0.134406,0.02271 -0.178571,0.01539 -0.178571,-0.02958 0,-0.03286 0.120535,-0.923569 0.267857,-1.979353 l 0.267857,-1.919609 -0.0011,-1.651803 c -0.001,-1.475118 -0.01045,-1.692392 -0.08814,-2.031267 -0.07199,-0.313998 -0.08719,-0.550685 -0.08814,-1.371914 l -0.0011,-0.992449 -0.200893,0.02754 c -0.110491,0.01514 -0.200775,0.0097 -0.200631,-0.01202 1.45e-4,-0.02175 0.13118,-0.661774 0.291189,-1.42227 l 0.290926,-1.382719 0.319142,-0.581566 c 0.30489,-0.555597 0.351193,-0.614114 1.036936,-1.31045 0.702796,-0.713653 0.733187,-0.738095 1.454402,-1.169714 0.599327,-0.358673 0.909275,-0.508426 1.663097,-0.80353 l 0.92649,-0.3627 0.691813,-0.821403 0.691814,-0.821402 0,-0.552504 0,-0.552505 -0.970982,-0.386498 -0.970982,-0.386498 -0.234866,-0.568788 c -0.129176,-0.312834 -0.234645,-0.591126 -0.234375,-0.618428 2.68e-4,-0.0273 0.116004,-0.323235 0.257187,-0.65763 0.24419,-0.5783678 0.282798,-0.6395338 0.792411,-1.2553952 l 0.535714,-0.6474046 0.970983,-7.69e-4 0.970982,-7.69e-4 0,14.2537978 0,14.253797 -1.328125,0.394795 c -0.730469,0.217138 -1.348215,0.399845 -1.372768,0.406017 -0.02455,0.0062 -0.677456,-0.142774 -1.450893,-0.330989 z"
       id="path3448"
       inkscape:connector-curvature="0"
       transform="translate(0,1004.3622)" />
    <path
       style="fill:#5b3500;fill-opacity:1;stroke:#5b3500;stroke-opacity:1"
       d="m 26.013995,37.178557 c -0.638393,-0.19434 -1.236049,-0.374188 -1.328125,-0.399661 l -0.167411,-0.04632 0,-14.261671 0,-14.2616728 0.95595,0 0.95595,0 0.551645,0.6584821 c 0.541429,0.6462883 0.556478,0.6702302 0.812647,1.2928857 l 0.261003,0.634403 -0.251608,0.593275 -0.251607,0.593276 -0.958611,0.379464 -0.958612,0.379464 1.07e-4,0.558036 1.08e-4,0.558036 0.671623,0.803571 0.671624,0.803572 0.990874,0.402375 c 0.826496,0.335626 1.127882,0.485142 1.816766,0.901289 0.762005,0.460319 0.864403,0.537975 1.323712,1.003874 0.460272,0.466877 0.527945,0.558874 0.897266,1.219779 l 0.399447,0.714818 0.274949,1.316432 c 0.151223,0.724038 0.274797,1.34116 0.27461,1.371382 -2.23e-4,0.03949 -0.05734,0.04714 -0.202936,0.02718 l -0.202595,-0.02777 0.005,1.111212 c 0.0044,0.973794 -0.0065,1.162221 -0.08758,1.523686 -0.08321,0.370751 -0.09258,0.557807 -0.09258,1.849257 l 0,1.436782 0.268725,1.945386 c 0.147799,1.069963 0.279371,1.993015 0.292383,2.051226 0.0252,0.112737 0.03693,0.111771 -0.28209,0.02323 l -0.100446,-0.02788 -0.0036,1.043153 c -0.0029,0.855227 -0.01701,1.080545 -0.07813,1.250707 -0.06568,0.182877 -0.210224,0.328846 -1.215673,1.227679 l -1.141127,1.020124 -1.448158,0.346031 c -0.796487,0.190316 -1.458202,0.344278 -1.470479,0.342137 -0.01228,-0.0021 -0.544643,-0.162899 -1.183036,-0.357239 z"
       id="path4250"
       inkscape:connector-curvature="0"
       transform="translate(0,1004.3622)" />
    <path
       style="fill:#7f4a00;fill-opacity:1"
       d=""
       id="path4252"
       inkscape:connector-curvature="0"
       transform="translate(0,1004.3622)" />
    <path
       style="fill:#7f4a00;fill-opacity:1"
       d="m 14.510002,16.989869 c -0.679875,-0.273542 -1.228659,-0.504826 -1.219521,-0.513965 0.0091,-0.0091 0.609679,0.180689 1.334532,0.42184 1.248882,0.41549 1.314154,0.442615 1.246084,0.517831 -0.03951,0.04366 -0.08379,0.07764 -0.0984,0.07551 -0.01461,-0.0021 -0.582824,-0.227673 -1.262699,-0.501215 z"
       id="path4254"
       inkscape:connector-curvature="0"
       transform="translate(0,1004.3622)" />
    <path
       style="fill:#7f4a00;fill-opacity:1;stroke:#7f4a00;stroke-width:0.04464286;stroke-opacity:1"
       d="m 32.129332,17.315566 c -0.03963,-0.04378 -0.05567,-0.08894 -0.03566,-0.100341 0.09055,-0.05158 2.655669,-0.8882 2.672298,-0.87157 0.01029,0.01029 -0.562531,0.251095 -1.272941,0.535117 -1.227933,0.490929 -1.295209,0.512477 -1.363701,0.436794 z"
       id="path4273"
       inkscape:connector-curvature="0"
       transform="translate(0,1004.3622)" />
    <path
       style="fill:#7f4a00;fill-opacity:1;stroke:#7f4a00;stroke-width:0.04464286;stroke-opacity:1"
       d="m 4.4291736,44.280747 0,-3.303487 1.568079,-3.136535 1.5680786,-3.136536 3.3761178,-0.964041 3.376118,-0.964042 0.186777,-1.312453 c 0.102727,-0.721849 0.200492,-1.438011 0.217254,-1.591471 l 0.03048,-0.279018 -3.364575,2.5e-5 -3.3645764,2.6e-5 -2.3623701,1.417441 -2.3623697,1.417442 -1.0230468,3.06914 -1.0230467,3.06914 -0.98362942,0 -0.98362936,0 0.0253655,-0.100446 c 0.013951,-0.05525 0.51340519,-1.810564 1.10989813,-3.900707 l 1.08453265,-3.800261 3.1364637,-1.568043 3.1364638,-1.568043 3.5713447,0 3.571345,0 3.5e-5,-1.127232 c 3.7e-5,-1.202264 -0.07391,-1.863839 -0.208339,-1.863839 -0.03419,0 -1.326611,0.210937 -2.872053,0.46875 -1.545442,0.257812 -2.8657273,0.468081 -2.9339657,0.467264 C 8.8376839,25.573004 7.1458031,25.104124 5.1461875,24.531867 2.1851449,23.684465 1.5042784,23.475575 1.4768704,23.406121 1.4583615,23.359218 1.207359,21.657296 0.91908705,19.624071 L 0.39495624,15.9273 1.3050906,15.016353 c 0.5005739,-0.501021 0.9180225,-0.903059 0.9276635,-0.893418 0.00964,0.0096 0.2621377,1.730008 0.561104,3.823038 l 0.5435749,3.805509 2.7891741,0.932636 2.7891737,0.932636 2.6116072,-0.43075 c 1.436384,-0.236913 2.656808,-0.441273 2.712054,-0.454135 0.08117,-0.0189 0.100687,-0.05458 0.101705,-0.185956 6.92e-4,-0.08941 0.138842,-0.819201 0.306999,-1.62175 l 0.305741,-1.459179 0.277248,-0.497496 c 0.152486,-0.273622 0.270475,-0.502773 0.262197,-0.509223 -0.0083,-0.0065 -1.109917,-0.448111 -2.448087,-0.981469 l -2.433036,-0.969742 -2.2099867,-2.206945 -2.2099875,-2.206945 -0.3904589,0 -0.3904594,0 0,-3.7276788 0,-3.7276786 0.9821428,0 0.9821429,0 0,3.1359661 0,3.1359663 1.8858665,1.886258 1.8858663,1.886258 2.959243,0.986413 2.959243,0.986412 0.902658,-0.533925 c 0.735499,-0.435049 1.06387,-0.598038 1.773195,-0.880131 l 0.870535,-0.346206 0.546524,-0.653059 c 0.521185,-0.62278 0.546526,-0.662374 0.546551,-0.853952 l 2.6e-5,-0.200893 -0.887522,-0.351771 -0.887523,-0.351771 -0.347272,-0.83012 c -0.190999,-0.456566 -0.347272,-0.851898 -0.347272,-0.878515 0,-0.02662 0.146861,-0.401083 0.326358,-0.8321464 0.314154,-0.7544451 0.341842,-0.8023447 0.740442,-1.2809469 L 20.716606,8.1644495 20.124017,6.3899673 19.531429,4.6154852 20.573288,2.5301448 21.615146,0.44480435 21.917249,0.55972411 c 0.166157,0.0632059 0.362371,0.13572984 0.436032,0.16116438 0.07366,0.0254345 0.137648,0.0486553 0.142193,0.0516018 0.0045,0.002946 -0.207887,0.86882561 -0.472072,1.92417601 l -0.480337,1.9188189 0.487239,1.4626665 0.487238,1.462667 1.431935,-0.011774 1.431934,-0.011774 L 25.866568,6.0663779 26.351725,4.615485 25.875659,2.7054245 C 25.613822,1.6548914 25.41025,0.78470626 25.423276,0.7716799 c 0.03142,-0.031417 0.847445,-0.3343369 0.860723,-0.31951124 0.0057,0.006342 0.475636,0.94265474 1.044348,2.08069494 l 1.034021,2.0691641 -0.579795,1.7387611 -0.579795,1.7387611 0.451926,0.5427924 c 0.440802,0.5294326 0.459961,0.5619514 0.778376,1.3211576 0.179548,0.4281011 0.326451,0.8055111 0.326451,0.8386881 0,0.03318 -0.154362,0.431467 -0.343026,0.885087 l -0.343025,0.824763 -0.873492,0.349709 -0.873493,0.349708 -0.01347,0.206362 c -0.01338,0.205021 -0.0099,0.210628 0.538052,0.862394 l 0.55152,0.65603 0.91284,0.366799 c 0.722131,0.290167 1.078694,0.465418 1.706705,0.838843 l 0.793864,0.472046 3.000676,-1.000472 3.000676,-1.000473 1.908585,-1.908197 1.908585,-1.908198 0,-3.1363556 0,-3.1363554 0.959821,0 0.959822,0 0,3.7276786 0,3.7276784 -0.368471,0 -0.368471,0 -2.224954,2.225288 -2.224954,2.225288 -2.450669,0.977837 c -1.347868,0.53781 -2.450917,0.994935 -2.451218,1.015832 -3.13e-4,0.0209 0.128867,0.266658 0.287041,0.546135 l 0.28759,0.50814 0.315089,1.500375 c 0.173298,0.825206 0.315088,1.533937 0.315088,1.574959 0,0.0639 0.38544,0.138848 2.689732,0.523044 l 2.689732,0.448459 2.799311,-0.932016 c 2.059931,-0.685842 2.80481,-0.951835 2.820136,-1.007053 0.01145,-0.04127 0.256576,-1.742448 0.544723,-3.780395 0.288147,-2.037946 0.53642,-3.720013 0.551723,-3.737927 0.0153,-0.01791 0.435335,0.375311 0.933411,0.873831 l 0.905594,0.906401 -0.538214,3.76491 c -0.296018,2.070701 -0.543688,3.770387 -0.550384,3.777081 -0.0067,0.0067 -1.674875,0.487272 -3.707067,1.067951 l -3.694898,1.055781 -2.922158,-0.487159 c -2.546095,-0.424464 -2.924785,-0.478067 -2.94257,-0.416514 -0.01123,0.03885 -0.06235,0.271538 -0.113603,0.517074 -0.08115,0.38876 -0.09157,0.573297 -0.08067,1.428571 l 0.01252,0.982143 3.616071,0.02232 3.616071,0.02232 3.102898,1.55688 3.102897,1.55688 1.084531,3.800263 c 0.596496,2.090144 1.096054,3.845855 1.11013,3.901578 l 0.02559,0.101314 -0.995045,-0.01203 -0.995044,-0.01203 -1.022978,-3.069019 -1.022978,-3.069018 -2.380775,-1.42875 -2.380774,-1.428749 -3.327216,0 c -1.861405,0 -3.337886,0.01727 -3.351436,0.03919 -0.0243,0.03931 0.391839,3.116435 0.426082,3.150678 0.01003,0.01003 1.532918,0.451445 3.384197,0.980923 1.851278,0.529477 3.370551,0.96781 3.376162,0.974072 0.0056,0.0063 0.715535,1.422602 1.577606,3.147421 l 1.567404,3.136035 0,3.303697 0,3.303698 -0.982142,0 -0.982143,0 -2.6e-5,-3.180804 -2.5e-5,-3.180804 L 40.198392,38.767271 38.78016,36.4012 36.102435,35.504573 c -1.472749,-0.493145 -2.730785,-0.909831 -2.795636,-0.925971 -0.113422,-0.02823 -0.120953,-0.0181 -0.197867,0.266041 l -0.07996,0.295385 -1.302595,1.1663 -1.302596,1.1663 -1.557573,0.368384 c -0.856665,0.202611 -1.599422,0.368348 -1.65057,0.368304 -0.05115,-4.5e-5 -0.561753,-0.140705 -1.134675,-0.312579 -0.572923,-0.171874 -1.049649,-0.304526 -1.059393,-0.294782 -0.0097,0.0097 -0.139399,0.748024 -0.288123,1.640623 l -0.270407,1.622907 -0.452202,-0.01542 c -0.248712,-0.0085 -0.458357,-0.02133 -0.465878,-0.02856 -0.0075,-0.0072 -0.133959,-0.732748 -0.280972,-1.612276 -0.147013,-0.879528 -0.275083,-1.606928 -0.284599,-1.616444 -0.0095,-0.0095 -0.504529,0.127538 -1.100029,0.304565 l -1.082724,0.32187 -1.543106,-0.364235 c -0.848709,-0.20033 -1.585122,-0.381497 -1.636474,-0.402596 -0.05135,-0.0211 -0.666281,-0.551645 -1.36651,-1.178993 -1.239744,-1.110711 -1.27489,-1.146832 -1.33977,-1.37695 -0.04949,-0.175512 -0.08562,-0.232928 -0.140439,-0.223142 -0.153742,0.02744 -5.5335214,1.835617 -5.5643241,1.870199 -0.017767,0.01995 -0.6578598,1.081077 -1.4224286,2.358066 l -1.390125,2.321799 0,3.180433 0,3.180434 -0.9821428,0 -0.9821429,0 0,-3.303488 z m 3.0072058,-6.647811 1.1669014,-1.934477 2.6339282,-0.87221 c 1.448661,-0.479715 2.61384,-0.878387 2.589286,-0.885937 -0.02455,-0.0076 -1.290178,0.342167 -2.8125,0.777151 L 8.2461379,35.508342 7.2104893,37.561914 C 6.2971169,39.373025 6.0556901,39.879869 6.222487,39.636092 6.248332,39.598322 6.7945839,38.696899 7.4363794,37.632936 Z M 40.791573,37.451892 39.768575,35.404349 36.998428,34.613291 c -1.523581,-0.435082 -2.800281,-0.801603 -2.837111,-0.814491 -0.03683,-0.01289 -0.05416,-0.0091 -0.03851,0.0084 0.01565,0.01752 1.21096,0.427523 2.65625,0.911131 l 2.627798,0.879287 1.183036,1.970433 c 0.65067,1.083738 1.192406,1.961644 1.203859,1.950903 0.01145,-0.01074 -0.439526,-0.940924 -1.002174,-2.067072 z M 23.475196,36.780664 c 0.0516,0 0.06112,-2.227538 0.06112,-14.308036 l 0,-14.3080357 -1.000112,0 -1.000111,0 -0.543699,0.6500893 c -0.526044,0.6289791 -0.552279,0.6704849 -0.807924,1.2781864 -0.145325,0.345453 -0.264226,0.652718 -0.264226,0.682809 0,0.03009 0.108084,0.313725 0.240185,0.630296 l 0.240185,0.575584 0.954012,0.38659 0.954011,0.386591 0.01246,0.529912 0.01246,0.529912 -0.672008,0.802247 -0.672007,0.802248 -0.947591,0.382681 c -0.700771,0.283003 -1.133643,0.491755 -1.661877,0.801434 -0.694016,0.406869 -0.734651,0.439084 -1.431914,1.135176 -0.698433,0.697261 -0.726685,0.732813 -1.056243,1.329218 l -0.338616,0.612796 -0.294203,1.410879 c -0.161812,0.775984 -0.294203,1.431967 -0.294203,1.457742 0,0.02914 0.076,0.0383 0.200893,0.02422 l 0.200893,-0.02264 -4.02e-4,0.898534 c -3.57e-4,0.735784 0.01714,0.991524 0.09647,1.411927 0.05328,0.282366 0.105073,0.489162 0.115085,0.459546 0.01001,-0.02962 -0.01237,-0.220464 -0.04974,-0.424108 -0.03841,-0.209338 -0.0814,-0.811667 -0.0989,-1.385884 l -0.03096,-1.015625 -0.17202,0 c -0.106371,0 -0.172028,-0.02096 -0.172028,-0.05491 0,-0.0302 0.122284,-0.647946 0.271743,-1.372767 l 0.271744,-1.317857 0.268208,-0.491072 c 0.357102,-0.653831 0.501097,-0.833058 1.276875,-1.589295 0.583896,-0.569187 0.72675,-0.68262 1.24672,-0.989955 0.668417,-0.395076 0.816732,-0.465508 1.864069,-0.885201 l 0.757395,-0.303507 0.683598,-0.810802 0.683598,-0.810803 -0.01242,-0.584032 -0.01242,-0.584032 -0.952306,-0.381901 -0.952307,-0.3819 -0.219568,-0.530573 c -0.120763,-0.291814 -0.219569,-0.576304 -0.219569,-0.6322 0,-0.156043 0.430261,-1.1254201 0.612206,-1.3792964 0.219121,-0.3057523 0.757714,-0.9614179 0.8914,-1.085163 0.10535,-0.097516 0.135798,-0.1004464 1.043595,-0.1004464 l 0.93508,0 -0.01123,14.2475928 -0.01123,14.247593 -1.339285,0.397252 -1.339286,0.397252 -0.3125,-0.06833 c -0.171875,-0.03758 -0.823667,-0.194069 -1.448427,-0.347744 l -1.135927,-0.27941 -1.152431,-1.024942 C 15.819022,34.958068 15.57948,34.721973 15.540969,34.595243 15.487579,34.41954 15.418,33.451834 15.41395,32.828601 l -0.0026,-0.402965 -0.170513,0.01626 -0.170513,0.01626 0.258133,-1.86776 c 0.141973,-1.027268 0.256539,-1.938072 0.254592,-2.02401 -0.0032,-0.143084 -0.482454,3.09521 -0.553035,3.737163 l -0.03049,0.277342 0.149816,-0.04297 c 0.0824,-0.02363 0.163561,-0.04297 0.180361,-0.04297 0.0168,0 0.03825,0.416852 0.04766,0.926339 0.02344,1.268207 0.01368,1.2427 0.714041,1.866957 0.301093,0.268375 0.821328,0.733776 1.156079,1.034226 l 0.608638,0.546273 1.462063,0.349045 1.462064,0.349044 1.316931,-0.393085 c 0.724313,-0.216197 1.344436,-0.393085 1.378053,-0.393085 z m 5.168785,0.463379 c 0.787882,-0.187105 1.455726,-0.352842 1.484096,-0.368303 0.02837,-0.01546 0.564819,-0.486814 1.192108,-1.047449 1.384214,-1.237132 1.278632,-1.032029 1.278632,-2.483846 0,-0.921404 0.0054,-0.987845 0.07813,-0.966231 0.318445,0.09461 0.335041,0.09219 0.3072,-0.04461 -0.01442,-0.07086 -0.147196,-0.994755 -0.295057,-2.053106 l -0.26884,-1.924273 9.64e-4,-1.468584 c 8.62e-4,-1.311849 0.01064,-1.511464 0.09158,-1.870369 0.0784,-0.347625 0.09008,-0.548523 0.0866,-1.490354 l -0.004,-1.088569 0.22073,0.02928 0.22073,0.02928 -0.0801,-0.369284 c -0.04405,-0.203106 -0.176135,-0.831337 -0.293512,-1.396069 L 32.449831,19.70477 32.045088,18.968163 C 31.659606,18.266608 31.615883,18.206986 31.126289,17.715235 30.64469,17.231515 30.560084,17.168145 29.78634,16.71161 29.123948,16.320777 28.770431,16.147893 28.000625,15.838327 l -0.959821,-0.385979 -0.678899,-0.797896 -0.678899,-0.797896 -0.0019,-0.542309 -0.0019,-0.542308 0.94866,-0.378469 0.948661,-0.378468 0.253075,-0.574759 C 27.968793,11.124126 28.083603,10.83535 28.084736,10.79852 28.085836,10.76169 27.96194,10.443555 27.80934,10.091555 27.544495,9.4806436 27.507535,9.4223592 26.99617,8.8092454 l -0.535714,-0.6423081 -0.993304,-0.00117 -0.993303,-0.00117 0,14.2980757 0,14.298075 1.350446,0.406521 c 0.742746,0.223587 1.358716,0.408873 1.368825,0.411746 0.01011,0.0029 0.66301,-0.147861 1.450893,-0.334967 z M 4.4876558,30.601805 c 1.0978013,-0.66065 1.9880035,-1.20918 1.9782272,-1.218956 -0.00978,-0.0098 -0.949292,0.447855 -2.087813,1.016958 l -2.0700377,1.034734 -0.7719266,2.706543 c -0.4245596,1.4886 -0.78123116,2.756767 -0.79260343,2.818151 -0.0113723,0.06138 0.37730943,-1.07366 0.86373723,-2.522321 l 0.8844141,-2.633929 1.9960022,-1.20118 z m 42.0047192,3.522609 -0.79088,-2.767857 -2.069422,-1.040698 c -1.138182,-0.572383 -2.07633,-1.033788 -2.084773,-1.025345 -0.0084,0.0084 0.872574,0.547448 1.957815,1.197787 l 1.973166,1.182437 0.88925,2.655064 c 0.489089,1.460286 0.89521,2.635131 0.902487,2.610767 0.0073,-0.02436 -0.342661,-1.289834 -0.777643,-2.812155 z M 5.1657808,23.378171 C 3.6925665,22.885676 2.4836863,22.480279 2.4793805,22.477289 2.4750747,22.474298 2.2784206,21.116 2.0423716,19.458847 1.5176154,15.774862 1.578344,16.130218 1.4888232,16.219739 c -0.065996,0.066 -0.036261,0.322377 0.3667693,3.162353 0.2412232,1.699795 0.4530679,3.15044 0.4707661,3.223656 l 0.032179,0.133119 2.6759432,0.767798 c 1.4717688,0.422289 2.7060773,0.767608 2.7429076,0.767374 0.03683,-2.23e-4 -1.1383928,-0.403374 -2.6116071,-0.895868 z m 37.7521812,0.03333 c 1.500792,-0.428934 2.733582,-0.785519 2.739538,-0.792411 0.006,-0.0069 0.217732,-1.464431 0.470611,-3.238975 0.361652,-2.537829 0.448165,-3.238061 0.405348,-3.280877 -0.04048,-0.04048 -0.06254,-0.04131 -0.08605,-0.0032 -0.01739,0.02815 -0.230808,1.448731 -0.474259,3.156844 l -0.44263,3.105659 -2.693529,0.89784 c -2.346674,0.782222 -2.783158,0.935044 -2.670632,0.935044 0.01259,0 1.250816,-0.350946 2.751606,-0.779879 z M 15.897963,17.432695 c 0.05523,-0.05879 0.08385,-0.116351 0.06359,-0.127905 -0.09155,-0.05221 -3.995406,-1.334905 -4.012059,-1.318252 -0.0161,0.0161 3.751828,1.544903 3.822348,1.550877 0.01413,0.0012 0.07089,-0.04593 0.126125,-0.10472 z m 16.854871,-0.213024 c 0.259041,-0.102296 0.470983,-0.200919 0.470983,-0.219163 0,-0.01824 -0.07939,0.0052 -0.176415,0.05206 -0.09703,0.04688 -0.203502,0.08523 -0.236607,0.08523 -0.03311,0 -0.0843,0.02411 -0.113764,0.05357 -0.02946,0.02946 -0.05357,0.03705 -0.05357,0.01685 0,-0.02019 -0.02511,-0.01678 -0.0558,0.0076 -0.03069,0.02436 -0.131916,0.06881 -0.224942,0.09878 -0.131898,0.04249 -0.183394,0.04266 -0.233884,7.59e-4 -0.03561,-0.02955 -0.05374,-0.07155 -0.04028,-0.09332 0.01346,-0.02177 0.0032,-0.03958 -0.02281,-0.03958 -0.026,0 -0.04728,0.01348 -0.04728,0.02997 0,0.05505 0.147016,0.193248 0.20558,0.193248 0.0318,0 0.269755,-0.0837 0.528795,-0.185993 z m 0.649554,-0.260436 c 0.03683,-0.0238 0.04687,-0.04328 0.02232,-0.04328 -0.02455,0 -0.07478,0.01947 -0.111607,0.04328 -0.03683,0.0238 -0.04687,0.04328 -0.02232,0.04328 0.02455,0 0.07478,-0.01947 0.111607,-0.04328 z m 1.40625,-0.559499 c 0.662946,-0.264185 1.223842,-0.496889 1.246434,-0.51712 0.02259,-0.02023 -0.335684,0.08817 -0.796169,0.2409 -0.460486,0.152725 -0.801057,0.285019 -0.756825,0.293985 0.07496,0.01519 -0.687929,0.361341 -0.803523,0.364582 -0.02785,7.82e-4 -0.09081,0.03362 -0.139917,0.07297 -0.112064,0.0898 -0.180356,0.114679 1.25,-0.455318 z m -0.580357,0.113071 c 0.01517,-0.02455 0.0063,-0.04464 -0.01969,-0.04464 -0.026,0 -0.04728,0.02009 -0.04728,0.04464 0,0.02455 0.0089,0.04464 0.01969,0.04464 0.01083,0 0.0321,-0.02009 0.04728,-0.04464 z"
       id="path4275"
       inkscape:connector-curvature="0"
       transform="translate(0,1004.3622)" />
    <path
       style="fill:#653c05;fill-opacity:1;stroke:#653c05;stroke-width:0.04464286;stroke-opacity:1"
       d="m 4.4291736,44.273772 0,-3.310463 1.5587536,-3.13298 1.558754,-3.132981 3.3407998,-0.951719 c 1.83744,-0.523444 3.363235,-0.973783 3.390655,-1.000752 0.02742,-0.02697 0.134031,-0.671802 0.236914,-1.432963 0.102883,-0.761161 0.198529,-1.459264 0.212547,-1.551339 l 0.02549,-0.167411 -3.350227,0 -3.3502268,0 -2.3681478,1.417411 -2.3681476,1.41741 -1.032122,3.091518 -1.032122,3.091518 -0.99934369,0 c -0.77939702,0 -0.99534744,-0.01228 -0.98118632,-0.0558 0.009987,-0.03069 0.51315048,-1.794374 1.11814204,-3.919293 l 1.09998457,-3.863491 3.1439334,-1.571777 3.1439335,-1.571778 3.5771887,0 3.577189,0 -0.023,-1.216518 c -0.02072,-1.096147 -0.07116,-1.641224 -0.160909,-1.738881 -0.01582,-0.01721 -1.301735,0.178659 -2.857596,0.435267 -1.55586,0.256608 -2.8936772,0.466561 -2.9729268,0.466561 -0.105492,0 -4.8249451,-1.325032 -7.2974129,-2.048818 C 1.560584,23.509069 1.4956709,23.465717 1.475838,23.430151 1.4560051,23.394585 1.2018741,21.694354 0.91110263,19.651859 L 0.38242709,15.938233 1.3092108,15.012238 c 0.8395442,-0.83883 0.9290937,-0.915794 0.9513247,-0.817624 0.013498,0.0596 0.2558827,1.735603 0.5386336,3.724443 0.2827508,1.988839 0.5291235,3.664635 0.5474949,3.72399 0.030319,0.09796 0.2899833,0.193452 2.8127034,1.03441 l 2.7793004,0.92649 2.6623192,-0.444182 c 1.464275,-0.244301 2.67955,-0.454832 2.70061,-0.467848 0.02106,-0.01302 0.03796,-0.08777 0.03756,-0.16612 -4.01e-4,-0.07835 0.133167,-0.795356 0.296822,-1.593347 l 0.297555,-1.450893 0.261214,-0.472916 c 0.143667,-0.260103 0.261213,-0.492503 0.261213,-0.516443 0,-0.02394 -1.079799,-0.471707 -2.399553,-0.995039 l -2.399554,-0.95151 -2.2323069,-2.226243 -2.2323067,-2.226242 -0.3904612,0 -0.3904607,0 0,-3.7276788 0,-3.7276786 0.9821428,0 0.9821429,0 0,3.1200652 0,3.1200652 1.9034647,1.900542 1.9034651,1.900543 2.942074,0.980816 2.942074,0.980816 0.835265,-0.495125 c 0.766718,-0.454492 1.312642,-0.713858 2.339107,-1.111297 0.335496,-0.129902 0.353016,-0.144527 0.787751,-0.657578 0.601778,-0.710188 0.68448,-0.837721 0.668131,-1.030321 l -0.0133,-0.156649 -0.864237,-0.343301 c -0.47533,-0.188815 -0.878963,-0.360197 -0.896963,-0.380849 -0.06414,-0.07359 -0.681035,-1.601682 -0.682007,-1.689373 -5.44e-4,-0.04913 0.144356,-0.4346 0.322001,-0.8566035 0.303227,-0.7203303 0.347273,-0.7968125 0.719848,-1.2499611 0.218272,-0.2654755 0.396866,-0.5027688 0.396876,-0.5273183 10e-6,-0.02455 -0.262164,-0.8311875 -0.582608,-1.7925282 L 19.513921,4.6018577 20.5479,2.5327786 c 0.568688,-1.1379935 1.040273,-2.07591538 1.047967,-2.08427078 0.0077,-0.008355 0.216993,0.0593785 0.465111,0.15051979 0.35141,0.12908409 0.446867,0.18177915 0.431868,0.23840593 -0.01059,0.0399819 -0.225633,0.90641866 -0.477876,1.92541486 L 21.556348,4.6155689 22.0441,6.06642 l 0.487752,1.4508509 0.892857,0.00137 c 0.491072,7.5e-4 1.132276,-0.00929 1.424899,-0.022321 l 0.53204,-0.023688 0.478991,-1.4366014 0.47899,-1.4366014 -0.466095,-1.86274 c -0.256352,-1.0245069 -0.4602,-1.89179092 -0.452996,-1.92729766 0.01076,-0.0530044 0.735843,-0.36657582 0.850216,-0.36768445 0.01845,-1.7902e-4 0.500436,0.93371261 1.071079,2.07531431 L 28.379366,4.5926607 27.81052,6.301139 c -0.312866,0.9396629 -0.568846,1.7312871 -0.568846,1.7591638 0,0.027877 0.183193,0.2686625 0.407095,0.5350786 0.424928,0.505613 0.522711,0.6805469 0.922233,1.6498686 l 0.222765,0.540476 -0.324843,0.781662 c -0.178664,0.429915 -0.345194,0.819514 -0.370067,0.865775 -0.02895,0.05385 -0.351705,0.20459 -0.896967,0.418933 -0.849665,0.334004 -0.851817,0.335199 -0.881425,0.489114 -0.03861,0.200722 -10e-7,0.264421 0.592958,0.978232 l 0.484501,0.583248 0.892857,0.359007 c 0.680523,0.27363 1.082911,0.470393 1.692029,0.827382 0.439544,0.257606 0.821074,0.468375 0.847845,0.468375 0.02677,0 1.390095,-0.446973 3.029612,-0.993274 l 2.980938,-0.993273 1.896663,-1.898561 1.896663,-1.89856 0,-3.1349524 0,-3.1349518 0.982398,0 0.982397,0 -0.01141,3.7388393 -0.01142,3.7388399 -0.401786,0.01248 -0.401785,0.01248 -2.209822,2.207428 -2.209821,2.207428 -2.209822,0.88956 c -1.215401,0.489258 -2.315407,0.936727 -2.444456,0.994374 l -0.234635,0.104815 0.293981,0.524489 0.293981,0.52449 0.323144,1.551403 0.323145,1.551404 0.220188,0.05539 c 0.121103,0.03046 1.325099,0.240265 2.675545,0.46622 l 2.455357,0.410828 2.254465,-0.750968 c 1.239955,-0.413033 2.499304,-0.84035 2.798553,-0.949594 0.487344,-0.17791 0.546549,-0.211067 0.567674,-0.31793 0.01297,-0.06562 0.257175,-1.756582 0.542679,-3.757698 0.2855,-2.001116 0.532871,-3.653049 0.549714,-3.670963 0.01684,-0.01791 0.440951,0.378123 0.94246,0.88008 l 0.911835,0.912649 -0.540121,3.754328 c -0.297067,2.064881 -0.55066,3.764865 -0.563535,3.777742 -0.01288,0.01288 -1.677393,0.497168 -3.698926,1.076201 l -3.675512,1.052787 -2.65625,-0.439163 C 35.021809,24.820282 33.696788,24.621044 33.538255,24.61907 l -0.288242,-0.0036 -0.08476,0.379464 c -0.07041,0.315221 -0.08443,0.55598 -0.08283,1.422086 0.0011,0.573443 0.0082,1.048884 0.01586,1.056537 0.0077,0.0077 1.631113,0.02844 3.607675,0.0462 l 3.59375,0.03228 3.107423,1.553126 3.107421,1.553126 1.084817,3.80895 c 0.596648,2.094922 1.094063,3.85415 1.105371,3.909396 l 0.02056,0.100446 -0.998875,0 -0.998871,0 -1.024402,-3.075383 -1.024401,-3.075382 -2.34721,-1.411224 -2.34721,-1.411225 -3.357936,0 -3.357935,0 0,0.109861 c 0,0.144529 0.352622,2.731031 0.395605,2.901788 0.02923,0.116108 0.06827,0.142524 0.321067,0.217206 0.158286,0.04676 1.670002,0.482211 3.359368,0.967664 1.689367,0.485454 3.078546,0.889944 3.087065,0.898866 0.0085,0.0089 0.720618,1.423261 1.582442,3.142975 l 1.566953,3.126752 0,3.31298 0,3.31298 -0.982142,0 -0.982143,0 0,-3.1736 0,-3.173601 -1.424668,-2.373274 -1.424667,-2.373275 -2.716363,-0.904018 c -1.493999,-0.49721 -2.748448,-0.904018 -2.787665,-0.904018 -0.04907,0 -0.09766,0.08906 -0.155845,0.28566 l -0.08454,0.285661 -1.288437,1.154071 -1.288437,1.154072 -1.546385,0.369182 c -0.989352,0.236198 -1.610708,0.363757 -1.724956,0.35412 -0.09821,-0.0083 -0.614877,-0.143244 -1.148141,-0.29991 -0.533263,-0.156666 -0.97937,-0.275047 -0.991348,-0.263069 -0.01198,0.01198 -0.144749,0.744079 -0.295045,1.626891 -0.150297,0.882811 -0.276787,1.608631 -0.281088,1.612933 -0.0043,0.0043 -0.212858,-0.0035 -0.463458,-0.01728 l -0.455636,-0.02511 -0.04519,-0.227984 c -0.02486,-0.125392 -0.148445,-0.840708 -0.274645,-1.589592 -0.126199,-0.748884 -0.242293,-1.374149 -0.257987,-1.389478 -0.01569,-0.01533 -0.490587,0.109662 -1.055319,0.277757 -0.564732,0.168094 -1.067963,0.306194 -1.118291,0.306888 -0.07704,0.0011 -2.535158,-0.572826 -3.06711,-0.716065 -0.124014,-0.03339 -0.398159,-0.248072 -1.005929,-0.787723 -1.608763,-1.428455 -1.736783,-1.555209 -1.818143,-1.800162 -0.04048,-0.121866 -0.08818,-0.221574 -0.105998,-0.221574 -0.05903,0 -5.343281,1.77175 -5.4733364,1.835147 -0.099441,0.04847 -0.4357174,0.576738 -1.5260661,2.397337 l -1.3985192,2.335163 0,3.16707 0,3.167068 -0.9821428,0 -0.9821429,0 0,-3.310463 z m 2.991659,-6.644894 c 0.5963982,-0.994419 1.116475,-1.84084 1.1557259,-1.880936 0.039251,-0.04009 1.1122419,-0.418861 2.3844245,-0.841702 1.272182,-0.422842 2.304492,-0.777369 2.294022,-0.78784 -0.01047,-0.01047 -1.138943,0.297984 -2.507717,0.685453 L 8.2586071,35.508342 7.254716,37.517271 c -0.5521401,1.104911 -0.9846205,1.988839 -0.9610678,1.964286 0.023553,-0.02455 0.5307857,-0.858259 1.1271844,-1.852679 z m 33.2806624,-0.3125 c -0.528013,-1.055803 -0.970844,-1.919643 -0.984069,-1.919643 -0.01323,0 -1.150506,-0.322495 -2.527291,-0.716656 -1.376784,-0.39416 -2.5095,-0.710401 -2.517144,-0.702756 -0.0076,0.0076 1.056954,0.375339 2.365776,0.817098 l 2.379676,0.803198 1.010068,1.674112 c 0.555538,0.920761 1.049844,1.739402 1.09846,1.819201 0.256339,0.420768 0.04223,-0.0395 -0.825476,-1.774554 z m -12.03125,-0.09198 c 0.748884,-0.175844 1.409415,-0.349792 1.467847,-0.386551 0.208394,-0.131097 2.117792,-1.863288 2.240252,-2.032338 0.182603,-0.252076 0.220473,-0.515137 0.220473,-1.531507 0,-0.502139 0.0152,-0.912981 0.03378,-0.912981 0.01858,0 0.101669,0.01947 0.184648,0.04327 l 0.15087,0.04327 -0.02477,-0.255322 c -0.01362,-0.140428 -0.136894,-1.042529 -0.273933,-2.00467 l -0.249162,-1.749348 0.0016,-1.531902 c 0.0013,-1.237923 0.01507,-1.58759 0.07192,-1.822082 0.05128,-0.211511 0.0762,-0.612089 0.09192,-1.477612 l 0.02157,-1.187433 0.185529,0.03401 c 0.102041,0.0187 0.19332,0.02628 0.202843,0.01685 0.0095,-0.0094 -0.108383,-0.625441 -0.262013,-1.368894 L 32.454293,19.749425 32.068984,19.038607 C 31.707829,18.372345 31.65107,18.29399 31.163513,17.788607 30.693571,17.301511 30.580976,17.21173 29.998158,16.8594 29.15075,16.347117 28.809659,16.177651 27.835056,15.784697 l -0.812868,-0.327743 -0.672777,-0.7976 -0.672777,-0.797599 0.01243,-0.554057 0.01243,-0.554057 0.940555,-0.376205 0.940554,-0.376205 0.253004,-0.604357 0.253004,-0.604358 -0.246634,-0.588515 C 27.548046,9.5026236 27.522892,9.4628593 26.911948,8.7337888 l -0.476973,-0.5691965 -0.980648,0 -0.980648,0 0.01123,14.2962497 0.01123,14.29625 1.361607,0.407258 c 0.748884,0.223992 1.381697,0.401072 1.40625,0.393511 0.02455,-0.0076 0.657366,-0.157619 1.40625,-0.333463 z m -7.700893,0.268467 c 0.06492,-0.02941 0.04536,-0.03362 -0.0717,-0.01542 -0.10018,0.01558 -0.341826,-0.01855 -0.639735,-0.09034 -0.263309,-0.06345 -0.502247,-0.113189 -0.530974,-0.110521 -0.08754,0.0081 0.92195,0.257167 1.04152,0.256942 0.06138,-1.34e-4 0.151786,-0.01841 0.200893,-0.04066 z m 0.513393,-0.149992 c 0.184152,-0.05881 0.314732,-0.108807 0.290179,-0.111102 -0.02455,-0.0023 -0.195313,0.04394 -0.379465,0.102755 -0.184151,0.05881 -0.314732,0.108808 -0.290178,0.111103 0.02455,0.0023 0.195312,-0.04394 0.379464,-0.102756 z m -1.842448,-0.09811 c -0.01483,-0.01483 -0.05334,-0.01642 -0.08556,-0.0035 -0.03561,0.01425 -0.02504,0.02483 0.02697,0.02697 0.04706,0.0019 0.07343,-0.0086 0.05859,-0.02345 l 0,-2e-6 z m -0.955296,-0.233894 -0.811137,-0.207884 -0.949957,-0.848214 c -1.271711,-1.135507 -1.367256,-1.218465 -1.289376,-1.11952 0.03683,0.04679 0.554377,0.521766 1.150104,1.055496 l 1.08314,0.970418 0.724896,0.177934 c 0.398692,0.09786 0.765074,0.178321 0.814181,0.178794 0.04911,4.73e-4 -0.275726,-0.09269 -0.721851,-0.207024 z m 3.422744,0.149259 c 0.08594,-0.03309 0.126116,-0.06017 0.08929,-0.06017 -0.03683,0 -0.137277,0.02708 -0.223214,0.06017 -0.08594,0.03309 -0.126117,0.06017 -0.08929,0.06017 0.03683,0 0.137277,-0.02708 0.223214,-0.06017 z m 0.580357,-0.174398 c 0.184152,-0.05881 0.314732,-0.108807 0.290179,-0.111102 -0.02455,-0.0023 -0.195313,0.04394 -0.379464,0.102756 -0.184152,0.05881 -0.314733,0.108807 -0.290179,0.111102 0.02455,0.0023 0.195312,-0.04395 0.379464,-0.102756 z m 0.625,-0.182745 c 0.08594,-0.03309 0.126116,-0.06017 0.08929,-0.06017 -0.03683,0 -0.137277,0.02708 -0.223214,0.06017 -0.08594,0.03309 -0.126116,0.06017 -0.08929,0.06017 0.03683,0 0.137277,-0.02708 0.223214,-0.06017 z m 23.746442,-0.63616 c -0.0476,-0.165737 -0.370415,-1.299108 -0.717366,-2.518604 -0.346951,-1.219495 -0.64308,-2.236632 -0.658071,-2.260304 -0.01499,-0.02367 -0.881049,-0.467993 -1.924576,-0.987379 -1.043527,-0.519386 -1.862234,-0.91638 -1.81935,-0.882208 0.04288,0.03417 0.861461,0.531879 1.81906,1.106016 l 1.741089,1.043885 0.787411,2.366484 c 0.433076,1.301567 0.795928,2.381552 0.806339,2.399967 0.05516,0.09755 0.04274,0.0012 -0.03454,-0.267857 z m -45.1737207,-2.581829 0.595583,-1.789417 1.842141,-1.110927 c 1.0131772,-0.611009 1.8353232,-1.117744 1.8269902,-1.126077 -0.00833,-0.0083 -0.8761692,0.415821 -1.928525,0.942563 L 2.3086379,31.458852 1.6435566,33.796097 C 1.2777619,35.081582 0.97057441,36.173521 0.96091785,36.222628 0.92232588,36.418882 1.3213153,35.28105 1.8858233,33.584996 Z M 23.525154,18.354325 c -0.0063,-3.013951 -0.01151,-0.547992 -0.01151,5.47991 0,6.027902 0.0052,8.493862 0.01151,5.479911 0.0063,-3.013951 0.0063,-7.945871 0,-10.959821 z m -7.984526,16.25 c -0.02588,-0.06752 -0.06426,-0.283483 -0.08528,-0.479911 l -0.03823,-0.357143 0.01368,0.357143 c 0.01231,0.32133 0.07513,0.602678 0.134566,0.602678 0.01228,0 0.0011,-0.05524 -0.02473,-0.122767 z m -0.129311,-1.997768 c 0,-0.151976 -0.0048,-0.15625 -0.174852,-0.15625 -0.09811,0 -0.184734,-0.02449 -0.197368,-0.0558 -0.01239,-0.03069 -0.0241,-0.0088 -0.02604,0.04857 -0.0033,0.09738 0.0084,0.10235 0.175047,0.0742 0.176294,-0.02979 0.178572,-0.02841 0.178572,0.107683 0,0.07582 0.01004,0.137853 0.02232,0.137853 0.01228,0 0.02232,-0.07031 0.02232,-0.15625 z m -0.187094,-1.428572 c -10e-4,-0.07366 -0.03821,0.0971 -0.08263,0.379465 -0.04442,0.282366 -0.07992,0.57366 -0.0789,0.647321 0.001,0.07366 0.03821,-0.0971 0.08263,-0.379464 0.04442,-0.282366 0.07992,-0.573661 0.0789,-0.647322 z m 0.0393,-0.368303 c -0.01123,-0.04297 -0.02042,-0.0078 -0.02042,0.07813 0,0.08594 0.0092,0.121093 0.02042,0.07813 0.01123,-0.04297 0.01123,-0.113282 0,-0.15625 z m 0.04464,-0.3125 c -0.01123,-0.04297 -0.02042,-0.0078 -0.02042,0.07813 0,0.08594 0.0092,0.121093 0.02042,0.07813 0.01123,-0.04297 0.01123,-0.113282 0,-0.15625 z m 0.04464,-0.3125 c -0.01123,-0.04297 -0.02042,-0.0078 -0.02042,0.07813 0,0.08594 0.0092,0.121093 0.02042,0.07813 0.01123,-0.04297 0.01123,-0.113282 0,-0.15625 z m 0.04344,-0.290179 c -0.01239,-0.03069 -0.02252,-0.0056 -0.02252,0.0558 0,0.06138 0.01013,0.0865 0.02252,0.0558 0.01238,-0.03069 0.01238,-0.08092 0,-0.111607 z m 0.06477,-5.437898 c -0.02617,-0.294827 -0.03926,-0.352922 -0.04355,-0.193333 -0.0062,0.231084 0.03843,0.657346 0.06597,0.629808 0.0082,-0.0082 -0.0018,-0.204663 -0.02242,-0.436475 z M 7.1970308,24.08349 c 0,-0.01023 -1.0647322,-0.373512 -2.3660715,-0.80729 -1.3013393,-0.433779 -2.3660714,-0.795 -2.3660714,-0.802714 0,-0.0077 -0.2008929,-1.409362 -0.4464286,-3.114773 -0.2455357,-1.70541 -0.4464285,-3.11372 -0.4464285,-3.129576 0,-0.01586 -0.020089,-0.02883 -0.044643,-0.02883 -0.1060825,0 -0.044988,0.510824 0.5819793,4.866071 0.1254803,0.871652 0.2517829,1.607859 0.2806726,1.636015 0.040898,0.03986 4.6334142,1.383478 4.7735088,1.39657 0.018415,0.0017 0.033482,-0.0052 0.033482,-0.01547 z M 43.111513,23.342964 c 1.373147,-0.392967 2.509652,-0.729462 2.525563,-0.747768 0.0337,-0.03877 0.836125,-5.680382 0.876227,-6.160514 0.01758,-0.21049 0.0109,-0.323661 -0.01912,-0.323661 -0.06074,0 -0.03773,-0.142851 -0.524388,3.255254 -0.233554,1.630791 -0.436063,2.976774 -0.450023,2.991071 -0.01396,0.0143 -1.143959,0.401085 -2.511114,0.859526 -1.367156,0.458441 -2.465048,0.835115 -2.439759,0.837054 0.02529,0.0019 1.169464,-0.317995 2.54261,-0.710962 z m -27.712259,0.190928 c -0.0097,-0.09262 -0.01773,-0.02778 -0.01793,0.144093 -1.79e-4,0.171875 0.0077,0.247658 0.01757,0.168407 0.0099,-0.07925 0.01002,-0.219877 3.57e-4,-0.3125 l 3e-6,0 z m -0.121866,-0.9943 c 0.09862,-0.03158 0.09164,-0.03626 -0.05999,-0.04019 l -0.1716,-0.0045 0.03156,-0.234375 c 0.01736,-0.128907 0.02101,-0.224331 0.0081,-0.212054 -0.03643,0.03471 -0.110885,0.485899 -0.08453,0.512254 0.03108,0.03108 0.139108,0.0228 0.276437,-0.02118 z m -0.149005,-0.680803 c -0.01239,-0.03069 -0.02252,-0.0056 -0.02252,0.0558 0,0.06138 0.01013,0.0865 0.02252,0.0558 0.01238,-0.03069 0.01238,-0.08092 0,-0.111607 z m 0.147985,-0.584217 c 0.05361,-0.266073 0.08872,-0.492521 0.07802,-0.503216 -0.01751,-0.01751 -0.211049,0.88456 -0.210965,0.983266 8.9e-5,0.11782 0.04556,-0.04634 0.132943,-0.48005 z m 0.119872,-0.710426 c -0.01239,-0.03069 -0.02252,-0.0056 -0.02252,0.0558 0,0.06138 0.01013,0.08649 0.02252,0.0558 0.01238,-0.03069 0.01238,-0.08092 0,-0.111607 z m 0.04464,-0.223214 c -0.01239,-0.03069 -0.02252,-0.0056 -0.02252,0.0558 0,0.06138 0.01013,0.0865 0.02252,0.0558 0.01238,-0.03069 0.01238,-0.08092 0,-0.111607 z m 0.483454,-1.216518 c 0.285358,-0.504016 0.349815,-0.582203 1.089338,-1.321378 0.699577,-0.699248 0.841492,-0.818767 1.290232,-1.086623 0.591386,-0.353001 1.168629,-0.628223 2.062767,-0.983497 l 0.647321,-0.257206 0.558036,-0.665467 c 0.756364,-0.901976 0.81607,-0.976008 0.787149,-0.976008 -0.0138,0 -0.325275,0.35855 -0.692176,0.796778 l -0.667092,0.796778 -0.79653,0.324813 c -0.958823,0.390992 -1.344729,0.580094 -2.036868,0.99811 -0.473021,0.285679 -0.599053,0.392086 -1.250196,1.055525 -0.691393,0.704448 -0.73853,0.764065 -1.042231,1.318175 -0.1814,0.330967 -0.339582,0.682016 -0.368107,0.816929 -0.07649,0.361761 -0.05064,0.383522 0.03716,0.03129 0.05014,-0.20114 0.185979,-0.503403 0.3812,-0.848214 z m -0.02038,-1.698321 c 0.03374,-0.04065 0.04055,-0.08406 0.01663,-0.105981 -0.04931,-0.04518 -3.555229,-1.213726 -3.576789,-1.192166 -0.02699,0.02699 3.309487,1.363715 3.408037,1.365389 0.05224,8.89e-4 0.120695,-0.02937 0.152125,-0.06724 z M 34.40803,16.521429 c -0.01375,-0.01375 -0.04977,-2.9e-5 -0.08005,0.03048 -0.04376,0.04409 -0.03863,0.04922 0.02499,0.02499 0.04403,-0.01676 0.0688,-0.04173 0.05506,-0.05547 z m 0.713104,-0.25571 c 0.707836,-0.280791 0.749398,-0.331824 0.08976,-0.110214 -0.291848,0.09805 -0.541928,0.195157 -0.555732,0.215797 -0.0138,0.02064 -0.06528,0.06244 -0.114384,0.09289 -0.122126,0.07572 -0.04031,0.04774 0.580357,-0.19847 z M 22.327239,12.70302 c -0.01023,-0.0083 -0.436048,-0.181447 -0.946262,-0.384707 -0.758999,-0.302372 -0.93927,-0.390932 -0.991516,-0.487089 -0.07449,-0.137093 -0.08926,-0.102203 -0.02024,0.04779 0.03667,0.07967 0.25821,0.18761 0.993303,0.483932 0.81108,0.326953 1.053605,0.412448 0.964711,0.340078 z m 1.194001,-0.263874 c -0.01238,-0.03069 -0.02252,-0.0056 -0.02252,0.0558 0,0.06138 0.01013,0.0865 0.02252,0.0558 0.01238,-0.03069 0.01238,-0.08092 0,-0.111607 z m -3.375373,-1.216046 -0.173523,-0.441159 0.09173,-0.248406 c 0.243624,-0.6597507 0.469931,-1.0584833 0.91379,-1.6100141 0.54838,-0.6814071 0.572259,-0.7032058 0.795062,-0.7258058 l 0.178571,-0.018113 -0.202158,-0.0075 -0.202159,-0.0075 -0.469926,0.5691965 C 20.446711,9.4975303 20.4379,9.5114575 20.159866,10.183808 l -0.242688,0.586877 0.185741,0.462151 c 0.102158,0.254183 0.192655,0.455237 0.201105,0.446787 0.0085,-0.0085 -0.06272,-0.213886 -0.158157,-0.456523 z"
       id="path4277"
       inkscape:connector-curvature="0"
       transform="translate(0,1004.3622)" />
    <path
       style="fill:#7f4a00;fill-opacity:1;stroke:#7f4a00;stroke-width:0.04464286;stroke-opacity:1"
       d="m 44.053813,22.90918 1.52196,-0.518261 0.0528,-0.383253 c 0.201964,-1.466021 0.757041,-5.135207 0.760354,-5.026109 0.0041,0.135823 -0.736663,5.384899 -0.778985,5.519733 -0.01266,0.04032 -0.0575,0.08309 -0.09965,0.09506 -0.04216,0.01196 -0.701636,0.204981 -1.465512,0.428927 -0.763876,0.223945 -1.416778,0.406047 -1.450893,0.40467 -0.03411,-0.0014 0.622855,-0.235722 1.459933,-0.520766 z"
       id="path4279"
       inkscape:connector-curvature="0"
       transform="translate(0,1004.3622)" />
    <path
       style="fill:#7f4a00;fill-opacity:1;stroke:#7f4a00;stroke-width:0.04464286;stroke-opacity:1"
       d=""
       id="path4281"
       inkscape:connector-curvature="0"
       transform="translate(0,1004.3622)" />
    <path
       style="fill:#7f4a00;fill-opacity:1;stroke:#7f4a00;stroke-width:0.04464286;stroke-opacity:1"
       d="m 46.013995,33.089704 -0.491071,-1.463461 -1.194321,-0.715159 c -0.656876,-0.393337 -1.174174,-0.721874 -1.14955,-0.730082 0.02462,-0.0082 0.591682,0.265761 1.260131,0.60882 l 1.215362,0.623744 0.435843,1.511674 c 0.239713,0.831421 0.43108,1.537831 0.42526,1.5698 -0.0058,0.03197 -0.231565,-0.600432 -0.501654,-1.405336 z"
       id="path4283"
       inkscape:connector-curvature="0"
       transform="translate(0,1004.3622)" />
    <path
       style="fill:#7f4a00;fill-opacity:1;stroke:#7f4a00;stroke-width:0.04464286;stroke-opacity:1"
       d="m 40.248255,36.888511 -0.79676,-1.326908 -1.329878,-0.445264 c -0.731433,-0.244895 -1.319531,-0.455611 -1.306884,-0.468258 0.02747,-0.02747 2.79348,0.745104 2.864799,0.800164 0.06829,0.05272 1.415435,2.717221 1.38778,2.744876 -0.01226,0.01226 -0.380839,-0.574811 -0.819057,-1.30461 z"
       id="path4285"
       inkscape:connector-curvature="0"
       transform="translate(0,1004.3622)" />
    <path
       style="fill:#7f4a00;fill-opacity:1;stroke:#7f4a00;stroke-width:0.04464286;stroke-opacity:1"
       d="m 7.1160054,37.938919 c 0.00864,-0.02591 0.2865372,-0.575915 0.6175595,-1.22224 l 0.6018587,-1.175138 1.210657,-0.34026 c 0.6658614,-0.187143 1.2384064,-0.339222 1.2723214,-0.337953 0.03391,0.0013 -0.457814,0.181213 -1.0927319,0.399876 -0.6893446,0.237407 -1.1776823,0.429415 -1.2121989,0.476619 -0.031791,0.04348 -0.3543376,0.566658 -0.7167694,1.162624 -0.5941473,0.976987 -0.7296366,1.183292 -0.6806964,1.036472 z"
       id="path4289"
       inkscape:connector-curvature="0"
       transform="translate(0,1004.3622)" />
    <path
       style="fill:#7f4a00;fill-opacity:1;stroke:#7f4a00;stroke-width:0.04464286;stroke-opacity:1"
       d="m 1.6636217,33.990485 c -0.00277,-0.02455 0.1504219,-0.59276 0.340437,-1.262681 l 0.345482,-1.218038 1.2000009,-0.604664 c 0.6600004,-0.332566 1.208526,-0.596139 1.2189458,-0.58572 0.01042,0.01042 -0.5104455,0.338449 -1.1574783,0.728953 l -1.1764233,0.710007 -0.3829596,1.138393 c -0.2106277,0.626116 -0.3852298,1.118304 -0.3880045,1.09375 z"
       id="path4291"
       inkscape:connector-curvature="0"
       transform="translate(0,1004.3622)" />
    <path
       style="fill:#2c1900;fill-opacity:1;stroke:#000000;stroke-width:0.00817962;stroke-miterlimit:4;stroke-dasharray:none;stroke-opacity:0"
       d="m 26.600009,1015.2979 c -1.127613,-0.5942 -1.283857,-2.2671 -0.291253,-3.1187 0.570019,-0.4892 1.318918,-0.489 1.882463,0 0.403563,0.3502 0.587746,0.7093 0.644743,1.2569 0.144233,1.3857 -1.128283,2.4452 -2.235953,1.8618 z"
       id="path4379-2"
       inkscape:connector-curvature="0" />
    <path
       style="fill:#2c1900;fill-opacity:1;stroke:#000000;stroke-width:0.00817962;stroke-miterlimit:4;stroke-dasharray:none;stroke-opacity:0"
       d="m 20.287508,1015.4318 c -1.127613,-0.5942 -1.283857,-2.2671 -0.291253,-3.1187 0.570019,-0.4892 1.318918,-0.489 1.882463,0 0.403563,0.3502 0.587746,0.7093 0.644743,1.2569 0.144233,1.3857 -1.128283,2.4452 -2.235953,1.8618 z"
       id="path4379-2-7"
       inkscape:connector-curvature="0" />
  </g>
</svg>
